<svg width="250" height="75" viewBox="0 0 250 75" fill="none" xmlns="http://www.w3.org/2000/svg">
<path d="M34.0457 17.2468C29.2673 14.6088 25.1112 13.2898 21.5772 13.2898C19.188 13.2898 17.3215 13.7626 15.9776 14.7083C14.6834 15.654 14.0364 17.0726 14.0364 18.964C14.0364 20.7061 14.9821 22.2491 16.8735 23.593C18.8147 24.8872 21.3781 26.1315 24.5636 27.3261C27.1519 28.2718 29.3669 29.3669 31.2085 30.6112C33.0502 31.8058 34.5683 33.4732 35.7629 35.6135C37.0072 37.7538 37.6294 40.4665 37.6294 43.7516C37.6294 46.5888 36.8828 49.2268 35.3896 51.6658C33.9461 54.0549 31.8058 55.9712 28.9687 57.4147C26.1315 58.8084 22.7469 59.5052 18.8147 59.5052C15.5296 59.5052 12.2694 59.0324 9.03404 58.0867C5.79871 57.0912 2.78736 55.5979 0 53.607L4.77834 45.1702C6.66976 46.5639 8.83495 47.7087 11.2739 48.6046C13.7128 49.5006 15.9029 49.9486 17.8441 49.9486C20.1337 49.9486 22.1247 49.4757 23.817 48.53C25.5094 47.5345 26.3555 45.9417 26.3555 43.7516C26.3555 40.9145 23.6926 38.4507 18.3667 36.3602C15.2309 35.1158 12.6178 33.9212 10.5273 32.7764C8.43675 31.6316 6.61999 29.989 5.07698 27.8487C3.58375 25.7084 2.83714 23.0206 2.83714 19.7853C2.83714 15.0567 4.38014 11.249 7.46615 8.36209C10.6019 5.47518 14.7581 3.90729 19.9346 3.65842C24.0161 3.65842 27.4257 4.13127 30.1633 5.07698C32.9008 5.97292 35.5638 7.26705 38.152 8.95938L34.0457 17.2468Z" fill="black"/>
<path d="M60.0284 11.9458V26.1315H67.9426V34.2696H60.0284V58.9079H49.5758V34.2696H44.4988V26.1315H49.5758V11.9458H60.0284Z" fill="black"/>
<path d="M73.3596 42.1838C73.3596 38.8489 74.1311 35.8624 75.6741 33.2244C77.2669 30.5863 79.4818 28.5207 82.319 27.0275C85.2059 25.4845 88.4661 24.713 92.0996 24.713C95.7332 24.713 98.9187 25.4845 101.656 27.0275C104.444 28.5207 106.584 30.5863 108.077 33.2244C109.57 35.8624 110.317 38.8489 110.317 42.1838C110.317 45.5186 109.57 48.53 108.077 51.2178C106.584 53.9056 104.444 56.021 101.656 57.564C98.9187 59.0573 95.6834 59.8039 91.9503 59.8039C88.3168 59.8039 85.0815 59.107 82.2443 57.7134C79.457 56.2699 77.2669 54.2292 75.6741 51.5911C74.1311 48.9531 73.3596 45.8173 73.3596 42.1838ZM83.8869 42.2584C83.8869 44.8467 84.6335 47.0119 86.1267 48.754C87.6199 50.4463 89.5114 51.2925 91.801 51.2925C94.1902 51.2925 96.1065 50.4463 97.5499 48.754C99.0432 47.0616 99.7898 44.8965 99.7898 42.2584C99.7898 39.6204 99.0432 37.4552 97.5499 35.7629C96.1065 34.0705 94.1902 33.2244 91.801 33.2244C89.5114 33.2244 87.6199 34.0954 86.1267 35.8375C84.6335 37.5299 83.8869 39.6701 83.8869 42.2584Z" fill="black"/>
<path d="M146.251 55.9961C144.807 57.1409 142.991 58.0618 140.801 58.7586C138.66 59.4555 136.545 59.8039 134.454 59.8039C128.78 59.8039 124.275 58.2858 120.941 55.2495C117.655 52.1635 116.013 47.9327 116.013 42.5571C116.013 39.0729 116.809 36.0366 118.402 33.4484C120.045 30.8103 122.185 28.8193 124.823 27.4754C127.461 26.0818 130.298 25.3849 133.334 25.3849C138.76 25.3849 143.165 26.8284 146.549 29.7153L141.472 36.4348C139.332 34.7425 136.943 33.8963 134.305 33.8963C132.115 33.8963 130.248 34.7176 128.705 36.3602C127.212 38.0027 126.466 40.0683 126.466 42.5571C126.466 45.0458 127.287 47.1363 128.929 48.8286C130.572 50.4712 132.712 51.2925 135.35 51.2925C137.64 51.2925 139.531 50.6703 141.025 49.4259L146.251 55.9961Z" fill="black"/>
<path d="M167.643 45.3195L164.731 47.4847V58.9079H154.278V0H164.731V36.8828L180.26 25.4596L186.607 31.0592L175.034 39.7946L187.801 58.9079H175.631L167.643 45.3195Z" fill="black"/>
<path d="M205.488 0V58.9079H195.036V0H205.488Z" fill="black"/>
<path d="M250 26.2809L228.945 74.5869H218.866L226.706 57.1907L211.624 26.2809H223.346L231.932 45.5435L240.593 26.2809H250Z" fill="black"/>
</svg>
