<svg width="100" height="100" viewBox="0 0 100 100" fill="none" xmlns="http://www.w3.org/2000/svg">
<path d="M100 94.7815L72.057 66.6905C78.7372 58.6304 82.0558 48.3067 81.3235 37.8638C80.5912 27.4209 75.8643 17.6614 68.1246 10.6124C60.385 3.56346 50.2274 -0.233178 39.7617 0.0110967C29.296 0.255371 19.3266 4.52178 11.9242 11.9242C4.52178 19.3266 0.255371 29.296 0.0110967 39.7617C-0.233178 50.2274 3.56346 60.385 10.6124 68.1246C17.6614 75.8643 27.4209 80.5912 37.8638 81.3235C48.3067 82.0558 58.6304 78.7372 66.6905 72.057L94.7815 100L100 94.7815ZM7.4736 40.7831C7.4736 34.1951 9.42717 27.7551 13.0873 22.2773C16.7474 16.7996 21.9496 12.5303 28.0361 10.0091C34.1226 7.48802 40.8201 6.82838 47.2815 8.11363C53.7429 9.39889 59.6781 12.5713 64.3365 17.2297C68.9949 21.8881 72.1673 27.8233 73.4526 34.2847C74.7378 40.7462 74.0782 47.4436 71.5571 53.5301C69.036 59.6166 64.7666 64.8189 59.2889 68.4789C53.8112 72.139 47.3711 74.0926 40.7831 74.0926C31.9489 74.0926 23.4765 70.5832 17.2297 64.3365C10.983 58.0897 7.4736 49.6173 7.4736 40.7831Z" fill="black"/>
</svg>
