<svg width="141" height="141" viewBox="0 0 141 141" fill="none" xmlns="http://www.w3.org/2000/svg">
<rect width="141" height="141" fill="black"/>
<path d="M97.4658 44.8182C88.6986 40 81.0731 37.5909 74.589 37.5909C70.2055 37.5909 66.7808 38.4545 64.3151 40.1818C61.9406 41.9091 60.7534 44.5 60.7534 47.9545C60.7534 51.1364 62.4886 53.9545 65.9589 56.4091C69.5205 58.7727 74.2237 61.0455 80.0685 63.2273C84.8173 64.9545 88.8813 66.9546 92.2603 69.2273C95.6393 71.4091 98.4247 74.4545 100.616 78.3636C102.9 82.2727 104.041 87.2273 104.041 93.2273C104.041 98.4091 102.671 103.227 99.9315 107.682C97.2831 112.045 93.3562 115.545 88.1507 118.182C82.9452 120.727 76.7352 122 69.5205 122C63.4931 122 57.5114 121.136 51.5753 119.409C45.6393 117.591 40.1142 114.864 35 111.227L43.7671 95.8182C47.2374 98.3636 51.21 100.455 55.6849 102.091C60.1598 103.727 64.1781 104.545 67.7397 104.545C71.9406 104.545 75.5936 103.682 78.6986 101.955C81.8037 100.136 83.3562 97.2273 83.3562 93.2273C83.3562 88.0455 78.4703 83.5455 68.6986 79.7273C62.9452 77.4545 58.1507 75.2727 54.3151 73.1818C50.4795 71.0909 47.1461 68.0909 44.3151 64.1818C41.5753 60.2727 40.2055 55.3636 40.2055 49.4545C40.2055 40.8182 43.0365 33.8636 48.6986 28.5909C54.4521 23.3182 62.0776 20.4545 71.5753 20C79.0639 20 85.3196 20.8636 90.3425 22.5909C95.3653 24.2273 100.251 26.5909 105 29.6818L97.4658 44.8182Z" fill="white"/>
</svg>
